PathFileType	4	(X/Y/Z)	/Users/itak/Documents/Research/Walk-IL/dataset/trc/00464_00167.trc
DataRate	CameraRate	NumFrames	NumMarkers	Units	OrigDataRate	OrigDataStartFrame	OrigNumFrames
100.000000	100.000000	4	53	mm	100.000000	278	556
Frame#	Time	RPSI			LPSI			L3			STRN			T10			C7			CLAV			RBAK			LBAK			LSHO			LUPA			LAEL			LAOL			LWTS			LWPS			LFRA			LIFD			LHPS			LHTS			RSHO			RUPA			RAEL			RAOL			RWTS			RWPS			RFRA			RIFD			RHTS			RHPS			RBHD			LFHD			RFHD			LBHD			LHIP			RHIP			RASI			LASI			LKNE			LTHI			LANK			LTIP			LTOE			LMT1			LMT5			LHEE			RKNE			RTHI			RANK			RTIP			RTOE			RMT1			RMT5			RHEE			
		X1	Y1	Z1	X2	Y2	Z2	X3	Y3	Z3	X4	Y4	Z4	X5	Y5	Z5	X6	Y6	Z6	X7	Y7	Z7	X8	Y8	Z8	X9	Y9	Z9	X10	Y10	Z10	X11	Y11	Z11	X12	Y12	Z12	X13	Y13	Z13	X14	Y14	Z14	X15	Y15	Z15	X16	Y16	Z16	X17	Y17	Z17	X18	Y18	Z18	X19	Y19	Z19	X20	Y20	Z20	X21	Y21	Z21	X22	Y22	Z22	X23	Y23	Z23	X24	Y24	Z24	X25	Y25	Z25	X26	Y26	Z26	X27	Y27	Z27	X28	Y28	Z28	X29	Y29	Z29	X30	Y30	Z30	X31	Y31	Z31	X32	Y32	Z32	X33	Y33	Z33	X34	Y34	Z34	X35	Y35	Z35	X36	Y36	Z36	X37	Y37	Z37	X38	Y38	Z38	X39	Y39	Z39	X40	Y40	Z40	X41	Y41	Z41	X42	Y42	Z42	X43	Y43	Z43	X44	Y44	Z44	X45	Y45	Z45	X46	Y46	Z46	X47	Y47	Z47	X48	Y48	Z48	X49	Y49	Z49	X50	Y50	Z50	X51	Y51	Z51	X52	Y52	Z52	X53	Y53	Z53	

279	2.78	-433.46044921875	922.3975830078125	-654.8726806640625	-413.2616271972656	912.3636474609375	-796.1531372070312	-415.7076721191406	1016.144287109375	-702.159912109375	-151.355712890625	1222.107299804688	-662.6463012695312	-435.2984619140625	1139.760864257812	-703.6206665039062	-377.9175720214844	1408.479614257812	-669.4996337890625	-191.0833282470703	1334.035888671875	-663.2736206054688	-450.3246459960938	1280.400512695312	-594.7325439453125	-397.5531311035156	1368.162841796875	-773.1903076171875	-287.1915588378906	1398.844482421875	-840.6345825195312	-287.1693115234375	1287.276245117188	-946.8585815429688	-266.3631591796875	1067.8994140625	-984.0628051757812	-358.86279296875	1057.104736328125	-939.7986450195312	-181.0869445800781	880.1543579101562	-914.755859375	-233.3997039794922	852.6581420898438	-960.2228393554688	-239.7348937988281	980.34228515625	-979.1614990234375	-170.0203857421875	708.0655517578125	-902.8671875	-223.7035064697266	775.7404174804688	-951.9293823242188	-159.8069305419922	791.704345703125	-921.8394165039062	-337.9304809570312	1372.280639648438	-503.7963256835938	-371.1605224609375	1308.754150390625	-436.8599853515625	-374.1821899414062	1027.26025390625	-372.628662109375	-413.4026794433594	1004.852844238281	-423.1357421875	-242.9570770263672	837.7044677734375	-385.9217224121094	-319.1973571777344	814.154052734375	-347.3084106445312	-366.458251953125	969.03076171875	-360.4443054199219	-222.1597137451172	683.344970703125	-367.1942443847656	-218.2931976318359	743.841552734375	-362.7904357910156	-290.3998413085938	730.7276611328125	-339.2981262207031	-309.9230041503906	1602.265502929688	-557.1145629882812	-125.5243301391602	1611.707885742188	-649.7970581054688	-175.0915222167969	1601.517944335938	-529.1475830078125	-257.440185546875	1622.666015625	-725.6382446289062	-240.4898529052734	825.6117553710938	-884.9503173828125	-337.6182250976562	822.6488647460938	-495.3973693847656	-223.8121337890625	863.5177001953125	-543.6229858398438	-172.8376922607422	877.9534912109375	-792.6683349609375	-67.69901275634766	452.4147644042969	-857.0493774414062	-107.3149871826172	596.5216064453125	-874.281982421875	-44.22709655761719	34.04453659057617	-913.3639526367188	-34.50973892211914	306.5820007324219	-882.1239624023438	137.8404998779297	67.36887359619141	-757.8967895507812	58.21091842651367	61.38279342651367	-760.771240234375	100.9425201416016	44.56087112426758	-863.6646118164062	-109.8845291137695	39.95876693725586	-871.005859375	-351.8343505859375	433.9465026855469	-560.7154541015625	-300.3388061523438	684.1340942382812	-504.4049377441406	-604.3936767578125	80.07096099853516	-571.4423217773438	-415.121826171875	298.5293273925781	-562.7269897460938	-412.7312927246094	44.61265563964844	-666.821044921875	-478.4046020507812	54.19506454467773	-686.556640625	-478.2118835449219	45.21578216552734	-578.1998901367188	-675.8736572265625	102.6263885498047	-603.212646484375	
280	2.79	-424.8243103027344	921.7471923828125	-657.2855224609375	-403.3107299804688	912.9029541015625	-798.5691528320312	-406.5982055664062	1016.811950683594	-705.017822265625	-142.2173767089844	1222.59521484375	-662.3211669921875	-425.8141479492188	1140.463989257812	-707.1599731445312	-368.7705688476562	1409.078857421875	-672.6204223632812	-181.9956665039062	1334.481811523438	-663.4065551757812	-442.3539123535156	1280.876708984375	-599.1343994140625	-386.59912109375	1368.81396484375	-776.7293090820312	-275.1124267578125	1399.348388671875	-842.3465576171875	-273.2110900878906	1287.5498046875	-948.4978637695312	-252.5799713134766	1067.864379882812	-984.6423950195312	-346.0721435546875	1057.754760742188	-942.2582397460938	-170.5476989746094	879.4555053710938	-916.0381469726562	-223.5060119628906	851.9734497070312	-960.9658813476562	-227.0172882080078	980.0259399414062	-979.6683349609375	-159.7007446289062	707.4844970703125	-903.8859252929688	-213.9149322509766	775.1094970703125	-952.872802734375	-149.4580383300781	791.22998046875	-923.875	-331.4362182617188	1372.6357421875	-506.2321472167969	-366.0437316894531	1309.0703125	-440.0260009765625	-372.3651733398438	1027.686279296875	-376.4299621582031	-410.6980590820312	1005.951965332031	-427.8721618652344	-244.4930419921875	835.8213500976562	-386.3426818847656	-322.2927856445312	813.7408447265625	-349.9419860839844	-366.0398254394531	969.3792724609375	-364.1021423339844	-227.2406311035156	681.0571899414062	-366.7967834472656	-222.3917999267578	741.482666015625	-362.4607849121094	-295.3418273925781	729.8027954101562	-340.9283447265625	-302.6723937988281	1602.75390625	-559.0362548828125	-116.7357635498047	1612.26220703125	-648.6624145507812	-168.2759246826172	1601.954345703125	-528.8545532226562	-247.3742370605469	1623.305053710938	-726.6719360351562	-230.4582977294922	826.9678344726562	-886.6824951171875	-329.7642517089844	821.4528198242188	-497.6680603027344	-215.88623046875	863.3884887695312	-545.1156616210938	-162.5910339355469	879.40478515625	-793.5716552734375	-57.6986198425293	453.0880126953125	-856.8072509765625	-96.69307708740234	597.8889770507812	-874.1400756835938	-43.53264999389648	34.04794692993164	-913.5851440429688	-27.13594436645508	306.1213073730469	-881.9507446289062	139.8955841064453	61.93149948120117	-758.0988159179688	60.11167526245117	58.41937255859375	-761.091064453125	102.6888122558594	40.9300422668457	-864.6888427734375	-109.0439376831055	41.16809844970703	-871.1488037109375	-339.662841796875	433.0249633789062	-561.9422607421875	-291.3594665527344	683.3370971679688	-506.4233093261719	-602.1537475585938	86.21175384521484	-572.652587890625	-406.3631896972656	299.1062622070312	-563.6805419921875	-413.1505737304688	44.73673248291016	-666.4874267578125	-477.4965209960938	54.54993438720703	-687.1179809570312	-477.8518371582031	45.76167678833008	-578.8803100585938	-672.2807006835938	111.6476974487305	-605.0407104492188	
281	2.8	-416.5022583007812	921.1040649414062	-659.5343017578125	-393.5465393066406	913.6511840820312	-800.7613525390625	-397.7200622558594	1017.81982421875	-707.7938842773438	-133.1182708740234	1223.310180664062	-661.8862915039062	-416.4468078613281	1141.533569335938	-710.594970703125	-359.5413208007812	1409.945068359375	-675.64208984375	-172.9377746582031	1335.167358398438	-663.4569702148438	-434.3219299316406	1281.69384765625	-603.4182739257812	-375.5496520996094	1369.757934570312	-780.1353149414062	-262.9582214355469	1400.1083984375	-843.896728515625	-259.1783142089844	1288.139282226562	-949.981689453125	-238.7541809082031	1068.24853515625	-985.3268432617188	-333.0285949707031	1058.646606445312	-944.5626831054688	-159.5239562988281	879.10302734375	-917.5702514648438	-212.8864440917969	851.7898559570312	-962.2844848632812	-214.1107482910156	980.1766357421875	-980.4730834960938	-148.8172607421875	707.3171997070312	-905.3694458007812	-203.2983703613281	774.950439453125	-954.52978515625	-138.5440826416016	791.143310546875	-926.0958251953125	-324.8487243652344	1373.279541015625	-508.6252136230469	-360.8052062988281	1309.698120117188	-443.1347351074219	-370.4447326660156	1028.4541015625	-380.3986206054688	-407.8525695800781	1007.438049316406	-432.7899780273438	-246.2765350341797	834.205322265625	-387.0286865234375	-325.5685729980469	813.6978149414062	-352.9217834472656	-365.5886535644531	970.0987548828125	-367.9751892089844	-232.7610931396484	679.1019897460938	-366.7996826171875	-226.8641357421875	739.417236328125	-362.4680786132812	-300.5880737304688	729.26708984375	-342.9794311523438	-295.3956298828125	1603.438232421875	-560.8845825195312	-107.9226455688477	1613.014038085938	-647.4351196289062	-161.4440002441406	1602.608276367188	-528.5106201171875	-237.2528686523438	1624.116455078125	-727.6184692382812	-220.6482696533203	829.03759765625	-888.5738525390625	-322.1358337402344	820.2716064453125	-499.8721313476562	-208.3056488037109	863.4955444335938	-546.499755859375	-152.5408172607422	881.138671875	-794.2406616210938	-48.3970947265625	453.7022094726562	-856.5591430664062	-86.34922027587891	599.4732666015625	-873.8907470703125	-43.04628753662109	34.22880935668945	-913.7240600585938	-20.4307689666748	305.7384643554688	-881.7570190429688	141.4152526855469	57.75764465332031	-758.31689453125	61.56011199951172	56.22520065307617	-761.39013671875	103.9840621948242	38.48764801025391	-865.7409057617188	-108.4505920410156	42.04082107543945	-871.181396484375	-326.5778198242188	432.1608581542969	-562.7803955078125	-282.2867736816406	682.6302490234375	-508.2582092285156	-599.5281982421875	93.34616088867188	-574.5383911132812	-396.9150085449219	300.0093383789062	-564.50927734375	-413.6874084472656	44.80812072753906	-665.9374389648438	-476.3150634765625	55.10095596313477	-687.7552490234375	-477.5986633300781	46.66961669921875	-579.625732421875	-667.8453369140625	121.8959426879883	-607.8350219726562	
282	2.81	-408.5098266601562	920.4969482421875	-661.7201538085938	-383.9271545410156	914.62158203125	-802.8089599609375	-389.026611328125	1019.101928710938	-710.5414428710938	-124.0897979736328	1224.235473632812	-661.31494140625	-407.2122497558594	1142.90966796875	-713.9571533203125	-350.2513122558594	1411.044555664062	-678.5454711914062	-163.9394683837891	1336.078979492188	-663.4086303710938	-426.2594604492188	1282.8310546875	-607.5562133789062	-364.4381713867188	1370.945556640625	-783.37890625	-250.773681640625	1401.10205078125	-845.2608642578125	-245.1313781738281	1289.045776367188	-951.294189453125	-224.8444519042969	1069.044311523438	-986.11865234375	-319.7257995605469	1059.7783203125	-946.7617797851562	-148.0329284667969	879.0631103515625	-919.0872802734375	-201.407958984375	852.1195678710938	-964.0751953125	-200.9574584960938	980.7796630859375	-981.5148315429688	-137.4307250976562	707.5136108398438	-907.3101196289062	-191.7940368652344	775.2752685546875	-956.799560546875	-127.1115417480469	791.3887329101562	-928.2116088867188	-318.1950378417969	1374.20166015625	-510.9618530273438	-355.4596557617188	1310.639282226562	-446.1575927734375	-368.4104919433594	1029.559692382812	-384.5026550292969	-404.8569641113281	1009.302429199219	-437.848876953125	-248.2615356445312	832.8583374023438	-387.9965209960938	-328.9627990722656	814.0315551757812	-356.242431640625	-365.073486328125	971.1828002929688	-372.0358581542969	-238.6763916015625	677.4948120117188	-367.2377319335938	-231.6625518798828	737.6541748046875	-362.8399353027344	-306.0793762207031	729.1377563476562	-345.4711303710938	-288.1020812988281	1604.293334960938	-562.6424560546875	-99.10503387451172	1613.933837890625	-646.1167602539062	-154.6067199707031	1603.456176757812	-528.1104736328125	-227.1031341552734	1625.066040039062	-728.4669799804688	-210.8405456542969	831.72119140625	-890.4481811523438	-314.7973022460938	819.1206665039062	-502.0441589355469	-201.127197265625	863.8126220703125	-547.74267578125	-142.65966796875	883.0624389648438	-794.6338500976562	-39.91704177856445	454.1953735351562	-856.2069702148438	-76.40542602539062	601.1079711914062	-873.48828125	-42.71417236328125	34.52165222167969	-913.7547607421875	-14.42866897583008	305.372314453125	-881.4198608398438	142.4348449707031	54.62912368774414	-758.357177734375	62.552001953125	54.63264083862305	-761.5309448242188	104.86962890625	37.05100250244141	-866.6161499023438	-108.0764312744141	42.59905624389648	-871.12109375	-312.6771545410156	431.4017028808594	-563.148193359375	-273.1748352050781	682.03369140625	-509.8722839355469	-596.4131469726562	101.5576782226562	-577.2811889648438	-386.8239135742188	301.3232421875	-565.2037963867188	-414.2248229980469	44.742431640625	-665.1447143554688	-474.7230834960938	55.90827178955078	-688.4684448242188	-477.4119567871094	48.12387466430664	-580.4580078125	-662.416015625	133.3489990234375	-611.8268432617188	
